<?xml version="1.0" encoding="utf-8"?>
<svg viewBox="147.816 251.127 889.393 655.609" xmlns="http://www.w3.org/2000/svg" xmlns:xlink="http://www.w3.org/1999/xlink">
  <!--Generated by AMDN-->
  <g id="am1">
    <path id="am2" style="fill:#ccff00;fill-opacity:1;fill-rule:evenodd;opacity:1;stroke:none;" d="M542.08,644.215 C542.08,644.215,921.304,644.215,921.304,644.215 C921.304,644.215,921.304,790.278,921.304,790.278 C921.304,790.278,542.08,790.278,542.08,790.278 C542.08,790.278,542.08,644.215,542.08,644.215 z"/>
    <path id="am3" style="fill:#ccff00;fill-opacity:1;fill-rule:evenodd;opacity:1;stroke:none;" d="M222.75,760.673 C222.75,760.673,767.304,760.673,767.304,760.673 C767.304,760.673,767.304,906.736,767.304,906.736 C767.304,906.736,222.75,906.736,222.75,906.736 C222.75,906.736,222.75,760.673,222.75,760.673 z"/>
    <path id="am4" style="fill:#001959;fill-opacity:1;fill-rule:nonzero;opacity:1;stroke:none;" d="M542.08,288.49 C542.08,309.123,525.353,325.849,504.721,325.849 C484.088,325.849,467.362,309.122,467.362,288.49 C467.362,267.853,484.089,251.127,504.721,251.127 C525.354,251.127,542.08,267.854,542.08,288.49 z"/>
    <path id="am5" style="fill:#001959;fill-opacity:1;fill-rule:nonzero;opacity:1;stroke:none;" d="M524.47,485.47 C524.47,494.497,517.154,501.81,508.126,501.81 C505.856,501.81,503.587,501.81,501.317,501.81 C492.29,501.81,484.973,494.494,484.973,485.47 C484.973,439.083,484.973,392.697,484.973,346.31 C484.973,337.287,492.29,329.97,501.317,329.97 C503.587,329.97,505.856,329.97,508.126,329.97 C517.153,329.97,524.47,337.286,524.47,346.31 C524.47,346.31,524.47,485.47,524.47,485.47 z"/>
    <path id="am6" style="fill:#001959;fill-opacity:1;fill-rule:nonzero;opacity:1;stroke:none;" d="M487.76,684.33 C486.373,693.154,479.471,699.4,472.338,698.283 C470.186,697.946,468.033,697.609,465.881,697.271 C458.748,696.15,454.092,688.088,455.475,679.263 C465.409,615.953,475.342,552.643,485.276,489.333 C486.663,480.509,493.565,474.259,500.698,475.38 C502.85,475.717,505.003,476.055,507.155,476.392 C514.288,477.509,518.948,485.576,517.561,494.4 C517.561,494.4,487.76,684.33,487.76,684.33 z"/>
    <path id="am7" style="fill:#001959;fill-opacity:1;fill-rule:nonzero;opacity:1;stroke:none;" d="M599.23,545.23 C603.203,548.406,603.175,555.042,599.167,560.058 C597.958,561.572,596.748,563.087,595.539,564.601 C591.531,569.617,585.062,571.109,581.09,567.933 C552.587,545.162,524.084,522.392,495.582,499.621 C491.609,496.445,491.636,489.805,495.644,484.789 C496.854,483.276,498.063,481.763,499.273,480.25 C503.281,475.238,509.75,473.742,513.722,476.918 C513.722,476.918,599.23,545.23,599.23,545.23 z"/>
    <path id="am8" style="fill:#001959;fill-opacity:1;fill-rule:nonzero;opacity:1;stroke:none;" d="M601.45,660.25 C601.45,665.332,596.243,669.461,589.825,669.461 C587.888,669.461,585.95,669.461,584.013,669.461 C577.594,669.461,572.388,665.336,572.388,660.25 C572.388,623.767,572.388,587.283,572.388,550.8 C572.388,545.714,577.591,541.593,584.013,541.593 C585.95,541.593,587.888,541.593,589.825,541.593 C596.243,541.593,601.45,545.714,601.45,550.8 C601.45,550.8,601.45,660.25,601.45,660.25 z"/>
    <path id="am9" style="fill:#001959;fill-opacity:1;fill-rule:nonzero;opacity:1;stroke:none;" d="M490.96,334.68 C492.546,330.539,498.073,328.801,503.3,330.805 C504.879,331.409,506.459,332.013,508.038,332.617 C513.269,334.621,516.222,339.602,514.632,343.746 C503.249,373.465,491.867,403.184,480.484,432.902 C478.898,437.047,473.371,438.781,468.14,436.777 C466.562,436.173,464.984,435.569,463.406,434.965 C458.179,432.961,455.222,427.981,456.808,423.836 C456.808,423.836,490.96,334.68,490.96,334.68 z"/>
    <path id="am10" style="fill:#001959;fill-opacity:1;fill-rule:nonzero;opacity:1;stroke:none;" d="M562.93,438.53 C567.196,439.749,569.407,445.1,567.867,450.487 C567.404,452.113,566.94,453.74,566.477,455.366 C564.938,460.749,560.235,464.128,555.969,462.909 C525.369,454.169,494.768,445.43,464.168,436.69 C459.902,435.471,457.687,430.116,459.226,424.729 C459.69,423.104,460.154,421.479,460.617,419.854 C462.156,414.471,466.859,411.092,471.129,412.311 C471.129,412.311,562.93,438.53,562.93,438.53 z"/>
    <path id="am11" style="fill:#001959;fill-opacity:1;fill-rule:nonzero;opacity:1;stroke:none;" d="M1021.8,846.81 C1021.29,846.81,1020.78,846.81,1020.27,846.81 C1020.27,726.007,1020.27,605.203,1020.27,484.4 C1020.27,479.63,1016.37,475.728,1011.6,475.728 C974.027,475.728,936.454,475.728,898.881,475.728 C894.111,475.728,890.209,479.63,890.209,484.4 C890.209,496.866,890.209,509.332,890.209,521.798 C854.079,521.798,817.949,521.798,781.819,521.798 C777.049,521.798,773.147,525.7,773.147,530.47 C773.147,544.256,773.147,558.043,773.147,571.829 C771.995,571.262,770.71,570.934,769.342,570.934 C731.769,570.934,694.196,570.934,656.622,570.934 C651.853,570.934,647.951,574.837,647.951,579.606 C647.951,593.746,647.951,607.885,647.951,622.024 C647.044,621.7,646.076,621.516,645.06,621.516 C607.487,621.516,569.913,621.516,532.34,621.516 C527.57,621.516,523.668,625.419,523.668,630.188 C523.668,643.918,523.668,657.647,523.668,671.376 C488.845,671.376,454.021,671.376,419.198,671.376 C414.429,671.376,410.526,675.279,410.526,680.048 C410.526,688.006,410.526,695.965,410.526,703.923 C373.916,703.923,337.306,703.923,300.696,703.923 C295.927,703.923,292.024,707.825,292.024,746.193 C292.024,748.583,292.024,750.972,292.024,753.361 C290.473,751.92,288.407,751.029,286.134,751.029 C248.56,751.029,210.987,751.029,173.414,751.029 C168.644,751.029,164.742,754.932,164.742,759.701 C164.742,788.737,164.742,817.774,164.742,846.81 C164.234,846.81,163.726,846.81,163.218,846.81 C154.711,846.81,147.816,852.005,147.816,858.408 C147.816,870.651,147.816,882.895,147.816,895.138 C147.816,901.544,154.711,906.736,163.218,906.736 C191.13,906.736,219.041,906.736,246.952,906.736 C337.362,882.601,427.772,858.465,518.182,834.33 C522.37,833.209,526.428,828.815,527.21,824.561 C530.178,808.283,533.147,792.006,536.116,775.729 C536.893,771.471,537.96,768.065,538.491,768.166 C539.022,768.26,539.342,767.94,539.214,767.443 C539.085,766.955,542.401,765.639,546.589,764.518 C623.989,743.855,701.388,723.192,778.789,702.53 C782.972,701.413,785.495,697.073,784.382,692.893 C781.049,680.33,777.716,667.768,774.382,655.205 C773.277,651.018,775.793,648.525,779.976,649.654 C820.723,660.658,861.469,671.662,902.216,682.666 C906.396,683.795,907.298,687.213,904.224,690.256 C874.262,719.904,844.299,749.553,814.337,779.201 C811.263,782.248,807.837,781.318,806.727,777.139 C803.425,764.691,800.123,752.243,796.821,739.795 C795.712,735.607,791.376,733.103,787.192,734.22 C716.102,753.198,645.012,772.176,573.922,791.154 C569.735,792.272,565.672,796.674,564.895,800.924 C561.992,816.838,559.088,832.752,556.184,848.666 C555.407,852.92,554.716,856.392,554.641,856.377 C554.575,856.365,554.637,856.814,554.79,857.385 C554.942,857.947,551.637,859.322,547.454,860.443 C489.651,875.874,431.847,891.305,374.044,906.736 C589.964,906.736,805.884,906.736,1021.8,906.736 C1030.3,906.736,1037.2,901.541,1037.2,895.138 C1037.2,882.895,1037.21,870.651,1037.21,858.408 C1037.21,852.002,1030.31,846.81,1021.81,846.81 C1021.81,846.81,1021.8,846.81,1021.8,846.81 z"/>
    <g id="am12"/>
  </g>
</svg>
